# xmcd
#
# Track frame offsets: 
#        150
#        27509
#        52901
#        71396
#        89555
#        104547
#        134751
#        152607
#        174637
#        190159
#        215516
#        228650
#        239739
#        250916
#        274251
#        294496
#        307848
#
# Disc length: 4422 seconds
#
# Revision: 0
# Processed by: cddbd v1.5.2PL0 Copyright (c) Steve Scherf et al.
# Submitted via: ExactAudioCopy v1.2
#
DISCID=00114411
DTITLE=Mitch Woods - Friends Along The Way
DYEAR=2017
DGENRE=Blues
TTITLE0=Take This Hammer (feat. Van Morrison and Taj Mahal)
TTITLE1=C C Rider (feat. Van Morrison and Taj Mahal)
TTITLE2=Keep A Dollar In Your Pocket (feat. Elvin Bishop)
TTITLE3=Singin' The Blues (feat. Ruthie Foster)
TTITLE4=Mother In Law Blues (feat. John Hammond)
TTITLE5=Cryin' For My Baby (feat. Charlie Musselwhite)
TTITLE6=Nasty Boogie (feat. Joe Louis Walker)
TTITLE7=Empty Bed Blues (feat. Maria Muldaur)
TTITLE8=Bluesmobile (feat. Kenny Neil)
TTITLE9=The Blues (feat. Cyril Neville)
TTITLE10=Saturday Night Boogie Woogie Man (feat. Elvin Bishop)
TTITLE11=Blues Gave Me A Ride (feat. Charlie Musselwhite)
TTITLE12=Chicago Express (feat. James Cotton) [Previously released]
TTITLE13=Never Get Out Of These Blues Alive (feat.John Lee Hooker) [Pr
TTITLE13=eviously Released]
TTITLE14=Midnight Hour Blues (feat. Van Morrison and Taj Mahal)
TTITLE15=In The Night (feat. Marcia Ball)
TTITLE16=Take This Hammer (feat. Van Morrison and Taj Mahal) [Radio Ve
TTITLE16=rsion]
EXTD=
EXTT0=
EXTT1=
EXTT2=
EXTT3=
EXTT4=
EXTT5=
EXTT6=
EXTT7=
EXTT8=
EXTT9=
EXTT10=
EXTT11=
EXTT12=
EXTT13=
EXTT14=
EXTT15=
EXTT16=
PLAYORDER=
